solid TtrackSliderAll
facet normal -1.0 0.0 0.0
  outer loop
    vertex 2.8345913015056268 12.399773902746842 2.8000000000000025
    vertex 2.8345913015056268 12.399773902746842 0.5000000000000028
    vertex 2.8345913015056268 2.7997739027468365 2.8000000000000025
  endloop
endfacet
facet normal -1.0 0.0 0.0
  outer loop
    vertex 2.8345913015056268 2.7997739027468365 0.5000000000000028
    vertex 2.8345913015056268 2.7997739027468365 2.8000000000000025
    vertex 2.8345913015056268 12.399773902746842 0.5000000000000028
  endloop
endfacet
facet normal 0.0 1.0 0.0
  outer loop
    vertex 9.484591301505626 12.399773902746842 3.3000000000000025
    vertex 5.784591301505621 12.399773902746842 3.3000000000000025
    vertex 9.484591301505626 12.399773902746842 7.400000000000003
  endloop
endfacet
facet normal 0.0 1.0 0.0
  outer loop
    vertex 5.784591301505621 12.399773902746842 7.400000000000003
    vertex 9.484591301505626 12.399773902746842 7.400000000000003
    vertex 5.784591301505621 12.399773902746842 3.3000000000000025
  endloop
endfacet
facet normal 0.0 1.0 0.0
  outer loop
    vertex 12.43459130150562 12.399773902746842 0.5000000000000028
    vertex 2.8345913015056268 12.399773902746842 0.5000000000000028
    vertex 12.43459130150562 12.399773902746842 2.8000000000000025
  endloop
endfacet
facet normal 0.0 1.0 0.0
  outer loop
    vertex 2.8345913015056268 12.399773902746842 2.8000000000000025
    vertex 12.43459130150562 12.399773902746842 2.8000000000000025
    vertex 2.8345913015056268 12.399773902746842 0.5000000000000028
  endloop
endfacet
facet normal 0.0 1.0 0.0
  outer loop
    vertex 11.934591301505622 12.399773902746842 3.3000000000000025
    vertex 12.43459130150562 12.399773902746842 2.8000000000000025
    vertex 2.8345913015056268 12.399773902746842 2.8000000000000025
  endloop
endfacet
facet normal 0.0 1.0 0.0
  outer loop
    vertex 3.334591301505626 12.399773902746842 3.3000000000000025
    vertex 11.934591301505622 12.399773902746842 3.3000000000000025
    vertex 2.8345913015056268 12.399773902746842 2.8000000000000025
  endloop
endfacet
facet normal 0.0 1.0 0.0
  outer loop
    vertex 9.484591301505626 12.399773902746842 3.3000000000000025
    vertex 11.934591301505622 12.399773902746842 3.3000000000000025
    vertex 3.334591301505626 12.399773902746842 3.3000000000000025
  endloop
endfacet
facet normal 0.0 1.0 0.0
  outer loop
    vertex 5.784591301505621 12.399773902746842 3.3000000000000025
    vertex 9.484591301505626 12.399773902746842 3.3000000000000025
    vertex 3.334591301505626 12.399773902746842 3.3000000000000025
  endloop
endfacet
facet normal 0.0 0.0 -1.0
  outer loop
    vertex 3.334591301505626 11.899773902746842 2.8199664825478975e-15
    vertex 4.803404053579408 6.607615262619161 2.8199664825478975e-15
    vertex 3.334591301505626 3.2997739027468356 2.8199664825478975e-15
  endloop
endfacet
facet normal 0.0 0.0 -1.0
  outer loop
    vertex 5.156663971501483 5.908657068456995 2.8199664825478975e-15
    vertex 3.334591301505626 3.2997739027468356 2.8199664825478975e-15
    vertex 4.803404053579408 6.607615262619161 2.8199664825478975e-15
  endloop
endfacet
facet normal 0.0 0.0 -1.0
  outer loop
    vertex 5.678790541994808 5.324945691848942 2.8199664825478975e-15
    vertex 3.334591301505626 3.2997739027468356 2.8199664825478975e-15
    vertex 5.156663971501483 5.908657068456995 2.8199664825478975e-15
  endloop
endfacet
facet normal 0.0 0.0 -1.0
  outer loop
    vertex 6.334201702135225 4.89626009848223 2.8199664825478975e-15
    vertex 3.334591301505626 3.2997739027468356 2.8199664825478975e-15
    vertex 5.678790541994808 5.324945691848942 2.8199664825478975e-15
  endloop
endfacet
facet normal 0.0 0.0 -1.0
  outer loop
    vertex 7.078232264477306 4.651814503108362 2.8199664825478975e-15
    vertex 3.334591301505626 3.2997739027468356 2.8199664825478975e-15
    vertex 6.334201702135225 4.89626009848223 2.8199664825478975e-15
  endloop
endfacet
facet normal 0.0 0.0 -1.0
  outer loop
    vertex 11.934591301505622 3.2997739027468356 2.8199664825478975e-15
    vertex 3.334591301505626 3.2997739027468356 2.8199664825478975e-15
    vertex 7.078232264477306 4.651814503108362 2.8199664825478975e-15
  endloop
endfacet
facet normal 0.0 0.0 -1.0
  outer loop
    vertex 4.643084867845369 7.374187428486377 2.8199664825478975e-15
    vertex 4.803404053579408 6.607615262619161 2.8199664825478975e-15
    vertex 3.334591301505626 11.899773902746842 2.8199664825478975e-15
  endloop
endfacet
facet normal 0.0 0.0 -1.0
  outer loop
    vertex 7.63459130150563 4.620830520766859 2.8199664825478975e-15
    vertex 11.934591301505622 3.2997739027468356 2.8199664825478975e-15
    vertex 7.078232264477306 4.651814503108362 2.8199664825478975e-15
  endloop
endfacet
facet normal 0.0 0.0 -1.0
  outer loop
    vertex 7.860177775766092 4.608267469086579 2.8199664825478975e-15
    vertex 11.934591301505622 3.2997739027468356 2.8199664825478975e-15
    vertex 7.63459130150563 4.620830520766859 2.8199664825478975e-15
  endloop
endfacet
facet normal 0.0 0.0 -1.0
  outer loop
    vertex 8.626749941633296 4.76858665482064 2.8199664825478975e-15
    vertex 11.934591301505622 3.2997739027468356 2.8199664825478975e-15
    vertex 7.860177775766092 4.608267469086579 2.8199664825478975e-15
  endloop
endfacet
facet normal 0.0 0.0 -1.0
  outer loop
    vertex 9.325708135795486 5.121846572742704 2.8199664825478975e-15
    vertex 11.934591301505622 3.2997739027468356 2.8199664825478975e-15
    vertex 8.626749941633296 4.76858665482064 2.8199664825478975e-15
  endloop
endfacet
facet normal 0.0 0.0 -1.0
  outer loop
    vertex 9.909419512403526 5.643973143236029 2.8199664825478975e-15
    vertex 11.934591301505622 3.2997739027468356 2.8199664825478975e-15
    vertex 9.325708135795486 5.121846572742704 2.8199664825478975e-15
  endloop
endfacet
facet normal 0.0 0.0 -1.0
  outer loop
    vertex 10.338105105770227 6.299384303376434 2.8199664825478975e-15
    vertex 11.934591301505622 3.2997739027468356 2.8199664825478975e-15
    vertex 9.909419512403526 5.643973143236029 2.8199664825478975e-15
  endloop
endfacet
facet normal 0.0 0.0 -1.0
  outer loop
    vertex 10.582550701144118 7.0434148657185265 2.8199664825478975e-15
    vertex 11.934591301505622 3.2997739027468356 2.8199664825478975e-15
    vertex 10.338105105770227 6.299384303376434 2.8199664825478975e-15
  endloop
endfacet
facet normal 0.0 0.0 -1.0
  outer loop
    vertex 10.62609773516589 7.825360377007302 2.8199664825478975e-15
    vertex 11.934591301505622 3.2997739027468356 2.8199664825478975e-15
    vertex 10.582550701144118 7.0434148657185265 2.8199664825478975e-15
  endloop
endfacet
facet normal 0.0 0.0 -1.0
  outer loop
    vertex 11.934591301505622 11.899773902746842 2.8199664825478975e-15
    vertex 6.642432661377951 10.43096115067306 2.8199664825478975e-15
    vertex 3.334591301505626 11.899773902746842 2.8199664825478975e-15
  endloop
endfacet
facet normal 0.0 0.0 -1.0
  outer loop
    vertex 5.943474467215762 10.077701232750973 2.8199664825478975e-15
    vertex 3.334591301505626 11.899773902746842 2.8199664825478975e-15
    vertex 6.642432661377951 10.43096115067306 2.8199664825478975e-15
  endloop
endfacet
facet normal 0.0 0.0 -1.0
  outer loop
    vertex 5.359763090607732 9.55557466225765 2.8199664825478975e-15
    vertex 3.334591301505626 11.899773902746842 2.8199664825478975e-15
    vertex 5.943474467215762 10.077701232750973 2.8199664825478975e-15
  endloop
endfacet
facet normal 0.0 0.0 -1.0
  outer loop
    vertex 4.931077497241021 8.900163502117245 2.8199664825478975e-15
    vertex 3.334591301505626 11.899773902746842 2.8199664825478975e-15
    vertex 5.359763090607732 9.55557466225765 2.8199664825478975e-15
  endloop
endfacet
facet normal 0.0 0.0 -1.0
  outer loop
    vertex 4.686631901867141 8.156132939775151 2.8199664825478975e-15
    vertex 3.334591301505626 11.899773902746842 2.8199664825478975e-15
    vertex 4.931077497241021 8.900163502117245 2.8199664825478975e-15
  endloop
endfacet
facet normal 0.0 0.0 -1.0
  outer loop
    vertex 4.643084867845369 7.374187428486377 2.8199664825478975e-15
    vertex 3.334591301505626 11.899773902746842 2.8199664825478975e-15
    vertex 4.686631901867141 8.156132939775151 2.8199664825478975e-15
  endloop
endfacet
facet normal 0.0 0.0 -1.0
  outer loop
    vertex 7.409004827245155 10.591280336407099 2.8199664825478975e-15
    vertex 6.642432661377951 10.43096115067306 2.8199664825478975e-15
    vertex 11.934591301505622 11.899773902746842 2.8199664825478975e-15
  endloop
endfacet
facet normal 0.0 0.0 -1.0
  outer loop
    vertex 7.63459130150563 10.578717284726842 2.8199664825478975e-15
    vertex 7.409004827245155 10.591280336407099 2.8199664825478975e-15
    vertex 11.934591301505622 11.899773902746842 2.8199664825478975e-15
  endloop
endfacet
facet normal 0.0 0.0 -1.0
  outer loop
    vertex 8.190950338533941 10.547733302385339 2.8199664825478975e-15
    vertex 7.63459130150563 10.578717284726842 2.8199664825478975e-15
    vertex 11.934591301505622 11.899773902746842 2.8199664825478975e-15
  endloop
endfacet
facet normal 0.0 0.0 -1.0
  outer loop
    vertex 8.934980900876035 10.303287707011448 2.8199664825478975e-15
    vertex 8.190950338533941 10.547733302385339 2.8199664825478975e-15
    vertex 11.934591301505622 11.899773902746842 2.8199664825478975e-15
  endloop
endfacet
facet normal 0.0 0.0 -1.0
  outer loop
    vertex 9.59039206101644 9.874602113644736 2.8199664825478975e-15
    vertex 8.934980900876035 10.303287707011448 2.8199664825478975e-15
    vertex 11.934591301505622 11.899773902746842 2.8199664825478975e-15
  endloop
endfacet
facet normal 0.0 0.0 -1.0
  outer loop
    vertex 10.112518631509765 9.290890737036706 2.8199664825478975e-15
    vertex 9.59039206101644 9.874602113644736 2.8199664825478975e-15
    vertex 11.934591301505622 11.899773902746842 2.8199664825478975e-15
  endloop
endfacet
facet normal 0.0 0.0 -1.0
  outer loop
    vertex 10.465778549431839 8.591932542874517 2.8199664825478975e-15
    vertex 10.112518631509765 9.290890737036706 2.8199664825478975e-15
    vertex 11.934591301505622 11.899773902746842 2.8199664825478975e-15
  endloop
endfacet
facet normal 0.0 0.0 -1.0
  outer loop
    vertex 10.62609773516589 7.825360377007302 2.8199664825478975e-15
    vertex 10.465778549431839 8.591932542874517 2.8199664825478975e-15
    vertex 11.934591301505622 11.899773902746842 2.8199664825478975e-15
  endloop
endfacet
facet normal 0.0 0.0 -1.0
  outer loop
    vertex 11.934591301505622 3.2997739027468356 2.8199664825478975e-15
    vertex 10.62609773516589 7.825360377007302 2.8199664825478975e-15
    vertex 11.934591301505622 11.899773902746842 2.8199664825478975e-15
  endloop
endfacet
facet normal 1.0 0.0 0.0
  outer loop
    vertex 12.43459130150562 12.399773902746842 0.5000000000000028
    vertex 12.43459130150562 12.399773902746842 2.8000000000000025
    vertex 12.43459130150562 2.7997739027468365 0.5000000000000028
  endloop
endfacet
facet normal 1.0 0.0 0.0
  outer loop
    vertex 12.43459130150562 2.7997739027468365 2.8000000000000025
    vertex 12.43459130150562 2.7997739027468365 0.5000000000000028
    vertex 12.43459130150562 12.399773902746842 2.8000000000000025
  endloop
endfacet
facet normal 5.567605518934091e-32 -1.0 3.2101610538888908e-31
  outer loop
    vertex 5.784591301505621 2.7997739027468365 3.3000000000000025
    vertex 9.484591301505626 2.7997739027468365 3.3000000000000025
    vertex 5.784591301505621 2.7997739027468365 7.400000000000003
  endloop
endfacet
facet normal 5.567605518934091e-32 -1.0 3.2101610538888908e-31
  outer loop
    vertex 9.484591301505626 2.7997739027468365 7.400000000000003
    vertex 5.784591301505621 2.7997739027468365 7.400000000000003
    vertex 9.484591301505626 2.7997739027468365 3.3000000000000025
  endloop
endfacet
facet normal 5.567605518934091e-32 -1.0 3.2101610538888908e-31
  outer loop
    vertex 2.8345913015056268 2.7997739027468365 0.5000000000000028
    vertex 12.43459130150562 2.7997739027468365 0.5000000000000028
    vertex 2.8345913015056268 2.7997739027468365 2.8000000000000025
  endloop
endfacet
facet normal 5.567605518934091e-32 -1.0 3.2101610538888908e-31
  outer loop
    vertex 12.43459130150562 2.7997739027468365 2.8000000000000025
    vertex 2.8345913015056268 2.7997739027468365 2.8000000000000025
    vertex 12.43459130150562 2.7997739027468365 0.5000000000000028
  endloop
endfacet
facet normal 5.567605518934091e-32 -1.0 3.2101610538888908e-31
  outer loop
    vertex 3.334591301505626 2.7997739027468365 3.3000000000000025
    vertex 2.8345913015056268 2.7997739027468365 2.8000000000000025
    vertex 12.43459130150562 2.7997739027468365 2.8000000000000025
  endloop
endfacet
facet normal 5.567605518934091e-32 -1.0 3.2101610538888908e-31
  outer loop
    vertex 11.934591301505622 2.7997739027468365 3.3000000000000025
    vertex 3.334591301505626 2.7997739027468365 3.3000000000000025
    vertex 12.43459130150562 2.7997739027468365 2.8000000000000025
  endloop
endfacet
facet normal 5.567605518934091e-32 -1.0 3.2101610538888908e-31
  outer loop
    vertex 5.784591301505621 2.7997739027468365 3.3000000000000025
    vertex 3.334591301505626 2.7997739027468365 3.3000000000000025
    vertex 11.934591301505622 2.7997739027468365 3.3000000000000025
  endloop
endfacet
facet normal 5.567605518934091e-32 -1.0 3.2101610538888908e-31
  outer loop
    vertex 9.484591301505626 2.7997739027468365 3.3000000000000025
    vertex 5.784591301505621 2.7997739027468365 3.3000000000000025
    vertex 11.934591301505622 2.7997739027468365 3.3000000000000025
  endloop
endfacet
facet normal 0.8368833220276425 -0.5473813161882466 0.0
  outer loop
    vertex 5.359763090607732 9.55557466225765 2.8199664825478975e-15
    vertex 5.359763090607732 9.55557466225765 2.5000000000000027
    vertex 4.931077497241021 8.900163502117245 2.8199664825478975e-15
  endloop
endfacet
facet normal 0.8368833220276425 -0.5473813161882466 0.0
  outer loop
    vertex 4.931077497241021 8.900163502117245 2.5000000000000027
    vertex 4.931077497241021 8.900163502117245 2.8199664825478975e-15
    vertex 5.359763090607732 9.55557466225765 2.5000000000000027
  endloop
endfacet
facet normal 0.9500399238998941 -0.31212840786490964 0.0
  outer loop
    vertex 4.931077497241021 8.900163502117245 2.8199664825478975e-15
    vertex 4.931077497241021 8.900163502117245 2.5000000000000027
    vertex 4.686631901867141 8.156132939775151 2.8199664825478975e-15
  endloop
endfacet
facet normal 0.9500399238998941 -0.31212840786490964 0.0
  outer loop
    vertex 4.686631901867141 8.156132939775151 2.5000000000000027
    vertex 4.686631901867141 8.156132939775151 2.8199664825478975e-15
    vertex 4.931077497241021 8.900163502117245 2.5000000000000027
  endloop
endfacet
facet normal 0.9788229126391982 0.2047088314961446 0.0
  outer loop
    vertex 4.643084867845369 7.374187428486377 2.8199664825478975e-15
    vertex 4.643084867845369 7.374187428486377 2.5000000000000027
    vertex 4.803404053579408 6.607615262619161 2.8199664825478975e-15
  endloop
endfacet
facet normal 0.9788229126391982 0.2047088314961446 0.0
  outer loop
    vertex 4.803404053579408 6.607615262619161 2.5000000000000027
    vertex 4.803404053579408 6.607615262619161 2.8199664825478975e-15
    vertex 4.643084867845369 7.374187428486377 2.5000000000000027
  endloop
endfacet
facet normal -0.05560446436216391 -0.9984528749735748 4.656011230630915e-19
  outer loop
    vertex 7.409004827245155 10.591280336407099 2.8199664825478975e-15
    vertex 7.63459130150563 10.578717284726842 2.8199664825478975e-15
    vertex 7.409004827245155 10.591280336407099 2.5000000000000027
  endloop
endfacet
facet normal -0.05560446436216391 -0.9984528749735748 4.656011230630915e-19
  outer loop
    vertex 8.190950338533941 10.547733302385339 2.8199664825478975e-15
    vertex 7.409004827245155 10.591280336407099 2.5000000000000027
    vertex 7.63459130150563 10.578717284726842 2.8199664825478975e-15
  endloop
endfacet
facet normal -0.05560446436216391 -0.9984528749735748 4.656011230630915e-19
  outer loop
    vertex 8.190950338533941 10.547733302385339 2.5000000000000027
    vertex 7.409004827245155 10.591280336407099 2.5000000000000027
    vertex 8.190950338533941 10.547733302385339 2.8199664825478975e-15
  endloop
endfacet
facet normal -0.05560446436216391 -0.9984528749735748 4.656011230630915e-19
  outer loop
    vertex 7.63459130150563 10.578717284726842 2.5000000000000027
    vertex 7.409004827245155 10.591280336407099 2.5000000000000027
    vertex 8.190950338533941 10.547733302385339 2.5000000000000027
  endloop
endfacet
facet normal -0.9500399238998939 0.3121284078649107 -0.0
  outer loop
    vertex 10.582550701144118 7.0434148657185265 2.5000000000000027
    vertex 10.582550701144118 7.0434148657185265 2.8199664825478975e-15
    vertex 10.338105105770227 6.299384303376434 2.5000000000000027
  endloop
endfacet
facet normal -0.9500399238998939 0.3121284078649107 -0.0
  outer loop
    vertex 10.338105105770227 6.299384303376434 2.8199664825478975e-15
    vertex 10.338105105770227 6.299384303376434 2.5000000000000027
    vertex 10.582550701144118 7.0434148657185265 2.8199664825478975e-15
  endloop
endfacet
facet normal 0.9984528749735749 -0.05560446436216146 0.0
  outer loop
    vertex 4.686631901867141 8.156132939775151 2.8199664825478975e-15
    vertex 4.686631901867141 8.156132939775151 2.5000000000000027
    vertex 4.643084867845369 7.374187428486377 2.8199664825478975e-15
  endloop
endfacet
facet normal 0.9984528749735749 -0.05560446436216146 0.0
  outer loop
    vertex 4.643084867845369 7.374187428486377 2.5000000000000027
    vertex 4.643084867845369 7.374187428486377 2.8199664825478975e-15
    vertex 4.686631901867141 8.156132939775151 2.5000000000000027
  endloop
endfacet
facet normal -0.8368833220276437 0.547381316188245 -0.0
  outer loop
    vertex 10.338105105770227 6.299384303376434 2.5000000000000027
    vertex 10.338105105770227 6.299384303376434 2.8199664825478975e-15
    vertex 9.909419512403526 5.643973143236029 2.5000000000000027
  endloop
endfacet
facet normal -0.8368833220276437 0.547381316188245 -0.0
  outer loop
    vertex 9.909419512403526 5.643973143236029 2.8199664825478975e-15
    vertex 9.909419512403526 5.643973143236029 2.5000000000000027
    vertex 10.338105105770227 6.299384303376434 2.8199664825478975e-15
  endloop
endfacet
facet normal 0.20470883149614874 -0.9788229126391972 0.0
  outer loop
    vertex 6.642432661377951 10.43096115067306 2.8199664825478975e-15
    vertex 7.409004827245155 10.591280336407099 2.8199664825478975e-15
    vertex 6.642432661377951 10.43096115067306 2.5000000000000027
  endloop
endfacet
facet normal 0.20470883149614874 -0.9788229126391972 0.0
  outer loop
    vertex 7.409004827245155 10.591280336407099 2.5000000000000027
    vertex 6.642432661377951 10.43096115067306 2.5000000000000027
    vertex 7.409004827245155 10.591280336407099 2.8199664825478975e-15
  endloop
endfacet
facet normal -0.20470883149614513 0.9788229126391981 -0.0
  outer loop
    vertex 8.626749941633296 4.76858665482064 2.8199664825478975e-15
    vertex 7.860177775766092 4.608267469086579 2.8199664825478975e-15
    vertex 8.626749941633296 4.76858665482064 2.5000000000000027
  endloop
endfacet
facet normal -0.20470883149614513 0.9788229126391981 -0.0
  outer loop
    vertex 7.860177775766092 4.608267469086579 2.5000000000000027
    vertex 8.626749941633296 4.76858665482064 2.5000000000000027
    vertex 7.860177775766092 4.608267469086579 2.8199664825478975e-15
  endloop
endfacet
facet normal -0.6666945047742885 0.7453310924037494 -0.0
  outer loop
    vertex 9.909419512403526 5.643973143236029 2.8199664825478975e-15
    vertex 9.325708135795486 5.121846572742704 2.8199664825478975e-15
    vertex 9.909419512403526 5.643973143236029 2.5000000000000027
  endloop
endfacet
facet normal -0.6666945047742885 0.7453310924037494 -0.0
  outer loop
    vertex 9.325708135795486 5.121846572742704 2.5000000000000027
    vertex 9.909419512403526 5.643973143236029 2.5000000000000027
    vertex 9.325708135795486 5.121846572742704 2.8199664825478975e-15
  endloop
endfacet
facet normal 0.3826834323650882 0.9238795325112874 0.0
  outer loop
    vertex 7.246362733851851 6.150885163313248 2.5000000000000027
    vertex 6.884591301505631 6.300735797070177 2.5000000000000027
    vertex 7.246362733851851 6.150885163313248 7.3999999999999995
  endloop
endfacet
facet normal 0.3826834323650882 0.9238795325112874 0.0
  outer loop
    vertex 6.884591301505631 6.300735797070177 7.3999999999999995
    vertex 7.246362733851851 6.150885163313248 7.3999999999999995
    vertex 6.884591301505631 6.300735797070177 2.5000000000000027
  endloop
endfacet
facet normal -0.547381316188247 -0.8368833220276423 0.0
  outer loop
    vertex 8.934980900876035 10.303287707011448 2.8199664825478975e-15
    vertex 9.59039206101644 9.874602113644736 2.8199664825478975e-15
    vertex 8.934980900876035 10.303287707011448 2.5000000000000027
  endloop
endfacet
facet normal -0.547381316188247 -0.8368833220276423 0.0
  outer loop
    vertex 9.59039206101644 9.874602113644736 2.5000000000000027
    vertex 8.934980900876035 10.303287707011448 2.5000000000000027
    vertex 9.59039206101644 9.874602113644736 2.8199664825478975e-15
  endloop
endfacet
facet normal -0.9788229126391982 -0.2047088314961446 0.0
  outer loop
    vertex 10.465778549431839 8.591932542874517 2.5000000000000027
    vertex 10.465778549431839 8.591932542874517 2.8199664825478975e-15
    vertex 10.62609773516589 7.825360377007302 2.5000000000000027
  endloop
endfacet
facet normal -0.9788229126391982 -0.2047088314961446 0.0
  outer loop
    vertex 10.62609773516589 7.825360377007302 2.8199664825478975e-15
    vertex 10.62609773516589 7.825360377007302 2.5000000000000027
    vertex 10.465778549431839 8.591932542874517 2.8199664825478975e-15
  endloop
endfacet
facet normal 0.923879532511288 -0.38268343236508695 0.0
  outer loop
    vertex 6.335553195828968 8.349773902746838 2.5000000000000027
    vertex 6.335553195828968 8.349773902746838 7.3999999999999995
    vertex 6.185702562072027 7.9880024704006285 2.5000000000000027
  endloop
endfacet
facet normal 0.923879532511288 -0.38268343236508695 0.0
  outer loop
    vertex 6.185702562072027 7.9880024704006285 7.3999999999999995
    vertex 6.185702562072027 7.9880024704006285 2.5000000000000027
    vertex 6.335553195828968 8.349773902746838 7.3999999999999995
  endloop
endfacet
facet normal -0.9238795325112873 -0.3826834323650885 0.0
  outer loop
    vertex 8.933629407182279 8.349773902746838 7.3999999999999995
    vertex 8.933629407182279 8.349773902746838 2.5000000000000027
    vertex 9.083480040939232 7.9880024704006285 7.3999999999999995
  endloop
endfacet
facet normal -0.9238795325112873 -0.3826834323650885 0.0
  outer loop
    vertex 9.083480040939232 7.9880024704006285 2.5000000000000027
    vertex 9.083480040939232 7.9880024704006285 7.3999999999999995
    vertex 8.933629407182279 8.349773902746838 2.5000000000000027
  endloop
endfacet
facet normal -0.6087614290087233 0.7933533402912332 -0.0
  outer loop
    vertex 8.695251473285452 6.539113730967027 2.5000000000000027
    vertex 8.384591301505628 6.300735797070177 2.5000000000000027
    vertex 8.695251473285452 6.539113730967027 7.3999999999999995
  endloop
endfacet
facet normal -0.6087614290087233 0.7933533402912332 -0.0
  outer loop
    vertex 8.384591301505628 6.300735797070177 7.3999999999999995
    vertex 8.695251473285452 6.539113730967027 7.3999999999999995
    vertex 8.384591301505628 6.300735797070177 2.5000000000000027
  endloop
endfacet
facet normal 0.7933533402912333 -0.608761429008723 0.0
  outer loop
    vertex 6.573931129725805 8.660434074526675 2.5000000000000027
    vertex 6.573931129725805 8.660434074526675 7.3999999999999995
    vertex 6.335553195828968 8.349773902746838 2.5000000000000027
  endloop
endfacet
facet normal 0.7933533402912333 -0.608761429008723 0.0
  outer loop
    vertex 6.335553195828968 8.349773902746838 7.3999999999999995
    vertex 6.335553195828968 8.349773902746838 2.5000000000000027
    vertex 6.573931129725805 8.660434074526675 7.3999999999999995
  endloop
endfacet
facet normal -0.8924877863898051 -0.4510715587853283 0.0
  outer loop
    vertex 10.112518631509765 9.290890737036706 2.5000000000000027
    vertex 10.112518631509765 9.290890737036706 2.8199664825478975e-15
    vertex 10.465778549431839 8.591932542874517 2.5000000000000027
  endloop
endfacet
facet normal -0.8924877863898051 -0.4510715587853283 0.0
  outer loop
    vertex 10.465778549431839 8.591932542874517 2.8199664825478975e-15
    vertex 10.465778549431839 8.591932542874517 2.5000000000000027
    vertex 10.112518631509765 9.290890737036706 2.8199664825478975e-15
  endloop
endfacet
facet normal -0.1305261922200446 -0.9914448613738114 0.0
  outer loop
    vertex 7.63459130150563 9.099773902746847 2.5000000000000027
    vertex 8.022819869159408 9.048662642180453 2.5000000000000027
    vertex 7.63459130150563 9.099773902746847 7.3999999999999995
  endloop
endfacet
facet normal -0.1305261922200446 -0.9914448613738114 0.0
  outer loop
    vertex 8.022819869159408 9.048662642180453 7.3999999999999995
    vertex 7.63459130150563 9.099773902746847 7.3999999999999995
    vertex 8.022819869159408 9.048662642180453 2.5000000000000027
  endloop
endfacet
facet normal 0.9914448613738105 0.13052619222005168 0.0
  outer loop
    vertex 6.134591301505632 7.5997739027468505 2.5000000000000027
    vertex 6.134591301505632 7.5997739027468505 7.3999999999999995
    vertex 6.185702562072027 7.211545335093072 2.5000000000000027
  endloop
endfacet
facet normal 0.9914448613738105 0.13052619222005168 0.0
  outer loop
    vertex 6.185702562072027 7.211545335093072 7.3999999999999995
    vertex 6.185702562072027 7.211545335093072 2.5000000000000027
    vertex 6.134591301505632 7.5997739027468505 7.3999999999999995
  endloop
endfacet
facet normal 0.7933533402912343 0.608761429008722 0.0
  outer loop
    vertex 6.335553195828968 6.849773902746841 2.5000000000000027
    vertex 6.335553195828968 6.849773902746841 7.3999999999999995
    vertex 6.573931129725805 6.539113730967027 2.5000000000000027
  endloop
endfacet
facet normal 0.7933533402912343 0.608761429008722 0.0
  outer loop
    vertex 6.573931129725805 6.539113730967027 7.3999999999999995
    vertex 6.573931129725805 6.539113730967027 2.5000000000000027
    vertex 6.335553195828968 6.849773902746841 7.3999999999999995
  endloop
endfacet
facet normal -0.7933533402912359 0.6087614290087195 -0.0
  outer loop
    vertex 8.933629407182279 6.849773902746841 7.3999999999999995
    vertex 8.933629407182279 6.849773902746841 2.5000000000000027
    vertex 8.695251473285452 6.539113730967027 7.3999999999999995
  endloop
endfacet
facet normal -0.7933533402912359 0.6087614290087195 -0.0
  outer loop
    vertex 8.695251473285452 6.539113730967027 2.5000000000000027
    vertex 8.695251473285452 6.539113730967027 7.3999999999999995
    vertex 8.933629407182279 6.849773902746841 2.5000000000000027
  endloop
endfacet
facet normal 0.6087614290087215 0.7933533402912344 0.0
  outer loop
    vertex 6.884591301505631 6.300735797070177 2.5000000000000027
    vertex 6.573931129725805 6.539113730967027 2.5000000000000027
    vertex 6.884591301505631 6.300735797070177 7.3999999999999995
  endloop
endfacet
facet normal 0.6087614290087215 0.7933533402912344 0.0
  outer loop
    vertex 6.573931129725805 6.539113730967027 7.3999999999999995
    vertex 6.884591301505631 6.300735797070177 7.3999999999999995
    vertex 6.573931129725805 6.539113730967027 2.5000000000000027
  endloop
endfacet
facet normal -0.13052619222005168 0.9914448613738105 -0.0
  outer loop
    vertex 8.022819869159408 6.150885163313248 2.5000000000000027
    vertex 7.63459130150563 6.099773902746853 2.5000000000000027
    vertex 8.022819869159408 6.150885163313248 7.3999999999999995
  endloop
endfacet
facet normal -0.13052619222005168 0.9914448613738105 -0.0
  outer loop
    vertex 7.63459130150563 6.099773902746853 7.3999999999999995
    vertex 8.022819869159408 6.150885163313248 7.3999999999999995
    vertex 7.63459130150563 6.099773902746853 2.5000000000000027
  endloop
endfacet
facet normal -0.3826834323650876 0.9238795325112877 -0.0
  outer loop
    vertex 8.384591301505628 6.300735797070177 2.5000000000000027
    vertex 8.022819869159408 6.150885163313248 2.5000000000000027
    vertex 8.384591301505628 6.300735797070177 7.3999999999999995
  endloop
endfacet
facet normal -0.3826834323650876 0.9238795325112877 -0.0
  outer loop
    vertex 8.022819869159408 6.150885163313248 7.3999999999999995
    vertex 8.384591301505628 6.300735797070177 7.3999999999999995
    vertex 8.022819869159408 6.150885163313248 2.5000000000000027
  endloop
endfacet
facet normal -0.9238795325112862 0.382683432365091 -0.0
  outer loop
    vertex 9.083480040939232 7.211545335093072 7.3999999999999995
    vertex 9.083480040939232 7.211545335093072 2.5000000000000027
    vertex 8.933629407182279 6.849773902746841 7.3999999999999995
  endloop
endfacet
facet normal -0.9238795325112862 0.382683432365091 -0.0
  outer loop
    vertex 8.933629407182279 6.849773902746841 2.5000000000000027
    vertex 8.933629407182279 6.849773902746841 7.3999999999999995
    vertex 9.083480040939232 7.211545335093072 2.5000000000000027
  endloop
endfacet
facet normal -0.9984528749735748 0.05560446436216125 -0.0
  outer loop
    vertex 10.62609773516589 7.825360377007302 2.5000000000000027
    vertex 10.62609773516589 7.825360377007302 2.8199664825478975e-15
    vertex 10.582550701144118 7.0434148657185265 2.5000000000000027
  endloop
endfacet
facet normal -0.9984528749735748 0.05560446436216125 -0.0
  outer loop
    vertex 10.582550701144118 7.0434148657185265 2.8199664825478975e-15
    vertex 10.582550701144118 7.0434148657185265 2.5000000000000027
    vertex 10.62609773516589 7.825360377007302 2.8199664825478975e-15
  endloop
endfacet
facet normal 0.3826834323650827 -0.9238795325112896 0.0
  outer loop
    vertex 6.884591301505631 8.898812008423501 2.5000000000000027
    vertex 7.246362733851839 9.04866264218043 2.5000000000000027
    vertex 6.884591301505631 8.898812008423501 7.3999999999999995
  endloop
endfacet
facet normal 0.3826834323650827 -0.9238795325112896 0.0
  outer loop
    vertex 7.246362733851839 9.04866264218043 7.3999999999999995
    vertex 6.884591301505631 8.898812008423501 7.3999999999999995
    vertex 7.246362733851839 9.04866264218043 2.5000000000000027
  endloop
endfacet
facet normal 0.1305261922200583 -0.9914448613738095 0.0
  outer loop
    vertex 7.246362733851839 9.04866264218043 2.5000000000000027
    vertex 7.63459130150563 9.099773902746847 2.5000000000000027
    vertex 7.246362733851839 9.04866264218043 7.3999999999999995
  endloop
endfacet
facet normal 0.1305261922200583 -0.9914448613738095 0.0
  outer loop
    vertex 7.63459130150563 9.099773902746847 7.3999999999999995
    vertex 7.246362733851839 9.04866264218043 7.3999999999999995
    vertex 7.63459130150563 9.099773902746847 2.5000000000000027
  endloop
endfacet
facet normal 0.9914448613738105 -0.13052619222005168 0.0
  outer loop
    vertex 6.185702562072027 7.9880024704006285 2.5000000000000027
    vertex 6.185702562072027 7.9880024704006285 7.3999999999999995
    vertex 6.134591301505632 7.5997739027468505 2.5000000000000027
  endloop
endfacet
facet normal 0.9914448613738105 -0.13052619222005168 0.0
  outer loop
    vertex 6.134591301505632 7.5997739027468505 7.3999999999999995
    vertex 6.134591301505632 7.5997739027468505 2.5000000000000027
    vertex 6.185702562072027 7.9880024704006285 7.3999999999999995
  endloop
endfacet
facet normal 0.9238795325112867 0.38268343236509006 0.0
  outer loop
    vertex 6.185702562072027 7.211545335093072 2.5000000000000027
    vertex 6.185702562072027 7.211545335093072 7.3999999999999995
    vertex 6.335553195828968 6.849773902746841 2.5000000000000027
  endloop
endfacet
facet normal 0.9238795325112867 0.38268343236509006 0.0
  outer loop
    vertex 6.335553195828968 6.849773902746841 7.3999999999999995
    vertex 6.335553195828968 6.849773902746841 2.5000000000000027
    vertex 6.185702562072027 7.211545335093072 7.3999999999999995
  endloop
endfacet
facet normal 0.6087614290087224 -0.7933533402912337 0.0
  outer loop
    vertex 6.573931129725805 8.660434074526675 2.5000000000000027
    vertex 6.884591301505631 8.898812008423501 2.5000000000000027
    vertex 6.573931129725805 8.660434074526675 7.3999999999999995
  endloop
endfacet
facet normal 0.6087614290087224 -0.7933533402912337 0.0
  outer loop
    vertex 6.884591301505631 8.898812008423501 7.3999999999999995
    vertex 6.573931129725805 8.660434074526675 7.3999999999999995
    vertex 6.884591301505631 8.898812008423501 2.5000000000000027
  endloop
endfacet
facet normal 0.1305261922200519 0.9914448613738104 0.0
  outer loop
    vertex 7.63459130150563 6.099773902746853 2.5000000000000027
    vertex 7.246362733851851 6.150885163313248 2.5000000000000027
    vertex 7.63459130150563 6.099773902746853 7.3999999999999995
  endloop
endfacet
facet normal 0.1305261922200519 0.9914448613738104 0.0
  outer loop
    vertex 7.246362733851851 6.150885163313248 7.3999999999999995
    vertex 7.63459130150563 6.099773902746853 7.3999999999999995
    vertex 7.246362733851851 6.150885163313248 2.5000000000000027
  endloop
endfacet
facet normal -0.7453310924037486 -0.6666945047742894 0.0
  outer loop
    vertex 9.59039206101644 9.874602113644736 2.5000000000000027
    vertex 9.59039206101644 9.874602113644736 2.8199664825478975e-15
    vertex 10.112518631509765 9.290890737036706 2.5000000000000027
  endloop
endfacet
facet normal -0.7453310924037486 -0.6666945047742894 0.0
  outer loop
    vertex 10.112518631509765 9.290890737036706 2.8199664825478975e-15
    vertex 10.112518631509765 9.290890737036706 2.5000000000000027
    vertex 9.59039206101644 9.874602113644736 2.8199664825478975e-15
  endloop
endfacet
facet normal -0.9914448613738105 0.13052619222005168 -0.0
  outer loop
    vertex 9.134591301505626 7.5997739027468505 7.3999999999999995
    vertex 9.134591301505626 7.5997739027468505 2.5000000000000027
    vertex 9.083480040939232 7.211545335093072 7.3999999999999995
  endloop
endfacet
facet normal -0.9914448613738105 0.13052619222005168 -0.0
  outer loop
    vertex 9.083480040939232 7.211545335093072 2.5000000000000027
    vertex 9.083480040939232 7.211545335093072 7.3999999999999995
    vertex 9.134591301505626 7.5997739027468505 2.5000000000000027
  endloop
endfacet
facet normal -0.38268343236509444 -0.923879532511285 0.0
  outer loop
    vertex 8.022819869159408 9.048662642180453 2.5000000000000027
    vertex 8.384591301505628 8.898812008423501 2.5000000000000027
    vertex 8.022819869159408 9.048662642180453 7.3999999999999995
  endloop
endfacet
facet normal -0.38268343236509444 -0.923879532511285 0.0
  outer loop
    vertex 8.384591301505628 8.898812008423501 7.3999999999999995
    vertex 8.022819869159408 9.048662642180453 7.3999999999999995
    vertex 8.384591301505628 8.898812008423501 2.5000000000000027
  endloop
endfacet
facet normal -0.7933533402912333 -0.608761429008723 0.0
  outer loop
    vertex 8.695251473285452 8.660434074526675 7.3999999999999995
    vertex 8.695251473285452 8.660434074526675 2.5000000000000027
    vertex 8.933629407182279 8.349773902746838 7.3999999999999995
  endloop
endfacet
facet normal -0.7933533402912333 -0.608761429008723 0.0
  outer loop
    vertex 8.933629407182279 8.349773902746838 2.5000000000000027
    vertex 8.933629407182279 8.349773902746838 7.3999999999999995
    vertex 8.695251473285452 8.660434074526675 2.5000000000000027
  endloop
endfacet
facet normal -0.9914448613738105 -0.13052619222005168 0.0
  outer loop
    vertex 9.083480040939232 7.9880024704006285 7.3999999999999995
    vertex 9.083480040939232 7.9880024704006285 2.5000000000000027
    vertex 9.134591301505626 7.5997739027468505 7.3999999999999995
  endloop
endfacet
facet normal -0.9914448613738105 -0.13052619222005168 0.0
  outer loop
    vertex 9.134591301505626 7.5997739027468505 2.5000000000000027
    vertex 9.134591301505626 7.5997739027468505 7.3999999999999995
    vertex 9.083480040939232 7.9880024704006285 2.5000000000000027
  endloop
endfacet
facet normal -0.6087614290087224 -0.7933533402912337 0.0
  outer loop
    vertex 8.384591301505628 8.898812008423501 2.5000000000000027
    vertex 8.695251473285452 8.660434074526675 2.5000000000000027
    vertex 8.384591301505628 8.898812008423501 7.3999999999999995
  endloop
endfacet
facet normal -0.6087614290087224 -0.7933533402912337 0.0
  outer loop
    vertex 8.695251473285452 8.660434074526675 7.3999999999999995
    vertex 8.384591301505628 8.898812008423501 7.3999999999999995
    vertex 8.695251473285452 8.660434074526675 2.5000000000000027
  endloop
endfacet
facet normal -0.31212840786491103 -0.9500399238998938 0.0
  outer loop
    vertex 8.190950338533941 10.547733302385339 2.8199664825478975e-15
    vertex 8.934980900876035 10.303287707011448 2.8199664825478975e-15
    vertex 8.190950338533941 10.547733302385339 2.5000000000000027
  endloop
endfacet
facet normal -0.31212840786491103 -0.9500399238998938 0.0
  outer loop
    vertex 8.934980900876035 10.303287707011448 2.5000000000000027
    vertex 8.190950338533941 10.547733302385339 2.5000000000000027
    vertex 8.934980900876035 10.303287707011448 2.8199664825478975e-15
  endloop
endfacet
facet normal 3.313421234455651e-31 1.2160346272558746e-32 -1.0
  outer loop
    vertex 4.643084867845369 7.374187428486377 2.5000000000000027
    vertex 4.686631901867141 8.156132939775151 2.5000000000000027
    vertex 4.803404053579408 6.607615262619161 2.5000000000000027
  endloop
endfacet
facet normal 3.313421234455651e-31 1.2160346272558746e-32 -1.0
  outer loop
    vertex 4.931077497241021 8.900163502117245 2.5000000000000027
    vertex 4.803404053579408 6.607615262619161 2.5000000000000027
    vertex 4.686631901867141 8.156132939775151 2.5000000000000027
  endloop
endfacet
facet normal 3.313421234455651e-31 1.2160346272558746e-32 -1.0
  outer loop
    vertex 5.156663971501483 5.908657068456995 2.5000000000000027
    vertex 4.803404053579408 6.607615262619161 2.5000000000000027
    vertex 4.931077497241021 8.900163502117245 2.5000000000000027
  endloop
endfacet
facet normal 3.313421234455651e-31 1.2160346272558746e-32 -1.0
  outer loop
    vertex 5.359763090607732 9.55557466225765 2.5000000000000027
    vertex 5.156663971501483 5.908657068456995 2.5000000000000027
    vertex 4.931077497241021 8.900163502117245 2.5000000000000027
  endloop
endfacet
facet normal 3.313421234455651e-31 1.2160346272558746e-32 -1.0
  outer loop
    vertex 5.678790541994808 5.324945691848942 2.5000000000000027
    vertex 5.156663971501483 5.908657068456995 2.5000000000000027
    vertex 5.359763090607732 9.55557466225765 2.5000000000000027
  endloop
endfacet
facet normal 3.313421234455651e-31 1.2160346272558746e-32 -1.0
  outer loop
    vertex 5.943474467215762 10.077701232750973 2.5000000000000027
    vertex 5.678790541994808 5.324945691848942 2.5000000000000027
    vertex 5.359763090607732 9.55557466225765 2.5000000000000027
  endloop
endfacet
facet normal 3.313421234455651e-31 1.2160346272558746e-32 -1.0
  outer loop
    vertex 6.334201702135225 4.89626009848223 2.5000000000000027
    vertex 5.678790541994808 5.324945691848942 2.5000000000000027
    vertex 5.943474467215762 10.077701232750973 2.5000000000000027
  endloop
endfacet
facet normal 3.313421234455651e-31 1.2160346272558746e-32 -1.0
  outer loop
    vertex 6.134591301505632 7.5997739027468505 2.5000000000000027
    vertex 6.334201702135225 4.89626009848223 2.5000000000000027
    vertex 5.943474467215762 10.077701232750973 2.5000000000000027
  endloop
endfacet
facet normal 3.313421234455651e-31 1.2160346272558746e-32 -1.0
  outer loop
    vertex 6.185702562072027 7.211545335093072 2.5000000000000027
    vertex 6.334201702135225 4.89626009848223 2.5000000000000027
    vertex 6.134591301505632 7.5997739027468505 2.5000000000000027
  endloop
endfacet
facet normal 3.313421234455651e-31 1.2160346272558746e-32 -1.0
  outer loop
    vertex 6.335553195828968 6.849773902746841 2.5000000000000027
    vertex 6.334201702135225 4.89626009848223 2.5000000000000027
    vertex 6.185702562072027 7.211545335093072 2.5000000000000027
  endloop
endfacet
facet normal 3.313421234455651e-31 1.2160346272558746e-32 -1.0
  outer loop
    vertex 7.078232264477306 4.651814503108362 2.5000000000000027
    vertex 6.334201702135225 4.89626009848223 2.5000000000000027
    vertex 6.335553195828968 6.849773902746841 2.5000000000000027
  endloop
endfacet
facet normal 3.313421234455651e-31 1.2160346272558746e-32 -1.0
  outer loop
    vertex 6.573931129725805 6.539113730967027 2.5000000000000027
    vertex 7.078232264477306 4.651814503108362 2.5000000000000027
    vertex 6.335553195828968 6.849773902746841 2.5000000000000027
  endloop
endfacet
facet normal 3.313421234455651e-31 1.2160346272558746e-32 -1.0
  outer loop
    vertex 6.884591301505631 6.300735797070177 2.5000000000000027
    vertex 7.078232264477306 4.651814503108362 2.5000000000000027
    vertex 6.573931129725805 6.539113730967027 2.5000000000000027
  endloop
endfacet
facet normal 3.313421234455651e-31 1.2160346272558746e-32 -1.0
  outer loop
    vertex 7.246362733851851 6.150885163313248 2.5000000000000027
    vertex 7.078232264477306 4.651814503108362 2.5000000000000027
    vertex 6.884591301505631 6.300735797070177 2.5000000000000027
  endloop
endfacet
facet normal 3.313421234455651e-31 1.2160346272558746e-32 -1.0
  outer loop
    vertex 7.63459130150563 4.620830520766859 2.5000000000000027
    vertex 7.078232264477306 4.651814503108362 2.5000000000000027
    vertex 7.246362733851851 6.150885163313248 2.5000000000000027
  endloop
endfacet
facet normal 3.313421234455651e-31 1.2160346272558746e-32 -1.0
  outer loop
    vertex 7.63459130150563 6.099773902746853 2.5000000000000027
    vertex 7.63459130150563 4.620830520766859 2.5000000000000027
    vertex 7.246362733851851 6.150885163313248 2.5000000000000027
  endloop
endfacet
facet normal 3.313421234455651e-31 1.2160346272558746e-32 -1.0
  outer loop
    vertex 7.860177775766092 4.608267469086579 2.5000000000000027
    vertex 7.63459130150563 4.620830520766859 2.5000000000000027
    vertex 7.63459130150563 6.099773902746853 2.5000000000000027
  endloop
endfacet
facet normal 3.313421234455651e-31 1.2160346272558746e-32 -1.0
  outer loop
    vertex 8.022819869159408 6.150885163313248 2.5000000000000027
    vertex 7.860177775766092 4.608267469086579 2.5000000000000027
    vertex 7.63459130150563 6.099773902746853 2.5000000000000027
  endloop
endfacet
facet normal 3.313421234455651e-31 1.2160346272558746e-32 -1.0
  outer loop
    vertex 8.626749941633296 4.76858665482064 2.5000000000000027
    vertex 7.860177775766092 4.608267469086579 2.5000000000000027
    vertex 8.022819869159408 6.150885163313248 2.5000000000000027
  endloop
endfacet
facet normal 3.313421234455651e-31 1.2160346272558746e-32 -1.0
  outer loop
    vertex 8.384591301505628 6.300735797070177 2.5000000000000027
    vertex 8.626749941633296 4.76858665482064 2.5000000000000027
    vertex 8.022819869159408 6.150885163313248 2.5000000000000027
  endloop
endfacet
facet normal 3.313421234455651e-31 1.2160346272558746e-32 -1.0
  outer loop
    vertex 8.695251473285452 6.539113730967027 2.5000000000000027
    vertex 8.626749941633296 4.76858665482064 2.5000000000000027
    vertex 8.384591301505628 6.300735797070177 2.5000000000000027
  endloop
endfacet
facet normal 3.313421234455651e-31 1.2160346272558746e-32 -1.0
  outer loop
    vertex 9.325708135795486 5.121846572742704 2.5000000000000027
    vertex 8.626749941633296 4.76858665482064 2.5000000000000027
    vertex 8.695251473285452 6.539113730967027 2.5000000000000027
  endloop
endfacet
facet normal 3.313421234455651e-31 1.2160346272558746e-32 -1.0
  outer loop
    vertex 8.933629407182279 6.849773902746841 2.5000000000000027
    vertex 9.325708135795486 5.121846572742704 2.5000000000000027
    vertex 8.695251473285452 6.539113730967027 2.5000000000000027
  endloop
endfacet
facet normal 3.313421234455651e-31 1.2160346272558746e-32 -1.0
  outer loop
    vertex 9.083480040939232 7.211545335093072 2.5000000000000027
    vertex 9.325708135795486 5.121846572742704 2.5000000000000027
    vertex 8.933629407182279 6.849773902746841 2.5000000000000027
  endloop
endfacet
facet normal 3.313421234455651e-31 1.2160346272558746e-32 -1.0
  outer loop
    vertex 9.134591301505626 7.5997739027468505 2.5000000000000027
    vertex 9.325708135795486 5.121846572742704 2.5000000000000027
    vertex 9.083480040939232 7.211545335093072 2.5000000000000027
  endloop
endfacet
facet normal 3.313421234455651e-31 1.2160346272558746e-32 -1.0
  outer loop
    vertex 6.642432661377951 10.43096115067306 2.5000000000000027
    vertex 6.185702562072027 7.9880024704006285 2.5000000000000027
    vertex 5.943474467215762 10.077701232750973 2.5000000000000027
  endloop
endfacet
facet normal 3.313421234455651e-31 1.2160346272558746e-32 -1.0
  outer loop
    vertex 6.134591301505632 7.5997739027468505 2.5000000000000027
    vertex 5.943474467215762 10.077701232750973 2.5000000000000027
    vertex 6.185702562072027 7.9880024704006285 2.5000000000000027
  endloop
endfacet
facet normal 3.313421234455651e-31 1.2160346272558746e-32 -1.0
  outer loop
    vertex 6.335553195828968 8.349773902746838 2.5000000000000027
    vertex 6.185702562072027 7.9880024704006285 2.5000000000000027
    vertex 6.642432661377951 10.43096115067306 2.5000000000000027
  endloop
endfacet
facet normal 3.313421234455651e-31 1.2160346272558746e-32 -1.0
  outer loop
    vertex 6.573931129725805 8.660434074526675 2.5000000000000027
    vertex 6.335553195828968 8.349773902746838 2.5000000000000027
    vertex 6.642432661377951 10.43096115067306 2.5000000000000027
  endloop
endfacet
facet normal 3.313421234455651e-31 1.2160346272558746e-32 -1.0
  outer loop
    vertex 6.884591301505631 8.898812008423501 2.5000000000000027
    vertex 6.573931129725805 8.660434074526675 2.5000000000000027
    vertex 6.642432661377951 10.43096115067306 2.5000000000000027
  endloop
endfacet
facet normal 3.313421234455651e-31 1.2160346272558746e-32 -1.0
  outer loop
    vertex 7.409004827245155 10.591280336407099 2.5000000000000027
    vertex 6.884591301505631 8.898812008423501 2.5000000000000027
    vertex 6.642432661377951 10.43096115067306 2.5000000000000027
  endloop
endfacet
facet normal 3.313421234455651e-31 1.2160346272558746e-32 -1.0
  outer loop
    vertex 7.246362733851839 9.04866264218043 2.5000000000000027
    vertex 6.884591301505631 8.898812008423501 2.5000000000000027
    vertex 7.409004827245155 10.591280336407099 2.5000000000000027
  endloop
endfacet
facet normal 3.313421234455651e-31 1.2160346272558746e-32 -1.0
  outer loop
    vertex 7.63459130150563 9.099773902746847 2.5000000000000027
    vertex 7.246362733851839 9.04866264218043 2.5000000000000027
    vertex 7.409004827245155 10.591280336407099 2.5000000000000027
  endloop
endfacet
facet normal 3.313421234455651e-31 1.2160346272558746e-32 -1.0
  outer loop
    vertex 7.63459130150563 10.578717284726842 2.5000000000000027
    vertex 7.63459130150563 9.099773902746847 2.5000000000000027
    vertex 7.409004827245155 10.591280336407099 2.5000000000000027
  endloop
endfacet
facet normal 3.313421234455651e-31 1.2160346272558746e-32 -1.0
  outer loop
    vertex 8.022819869159408 9.048662642180453 2.5000000000000027
    vertex 7.63459130150563 9.099773902746847 2.5000000000000027
    vertex 7.63459130150563 10.578717284726842 2.5000000000000027
  endloop
endfacet
facet normal 3.313421234455651e-31 1.2160346272558746e-32 -1.0
  outer loop
    vertex 8.190950338533941 10.547733302385339 2.5000000000000027
    vertex 8.022819869159408 9.048662642180453 2.5000000000000027
    vertex 7.63459130150563 10.578717284726842 2.5000000000000027
  endloop
endfacet
facet normal 3.313421234455651e-31 1.2160346272558746e-32 -1.0
  outer loop
    vertex 8.384591301505628 8.898812008423501 2.5000000000000027
    vertex 8.022819869159408 9.048662642180453 2.5000000000000027
    vertex 8.190950338533941 10.547733302385339 2.5000000000000027
  endloop
endfacet
facet normal 3.313421234455651e-31 1.2160346272558746e-32 -1.0
  outer loop
    vertex 8.934980900876035 10.303287707011448 2.5000000000000027
    vertex 8.384591301505628 8.898812008423501 2.5000000000000027
    vertex 8.190950338533941 10.547733302385339 2.5000000000000027
  endloop
endfacet
facet normal 3.313421234455651e-31 1.2160346272558746e-32 -1.0
  outer loop
    vertex 8.695251473285452 8.660434074526675 2.5000000000000027
    vertex 8.384591301505628 8.898812008423501 2.5000000000000027
    vertex 8.934980900876035 10.303287707011448 2.5000000000000027
  endloop
endfacet
facet normal 3.313421234455651e-31 1.2160346272558746e-32 -1.0
  outer loop
    vertex 8.933629407182279 8.349773902746838 2.5000000000000027
    vertex 8.695251473285452 8.660434074526675 2.5000000000000027
    vertex 8.934980900876035 10.303287707011448 2.5000000000000027
  endloop
endfacet
facet normal 3.313421234455651e-31 1.2160346272558746e-32 -1.0
  outer loop
    vertex 9.083480040939232 7.9880024704006285 2.5000000000000027
    vertex 8.933629407182279 8.349773902746838 2.5000000000000027
    vertex 8.934980900876035 10.303287707011448 2.5000000000000027
  endloop
endfacet
facet normal 3.313421234455651e-31 1.2160346272558746e-32 -1.0
  outer loop
    vertex 9.59039206101644 9.874602113644736 2.5000000000000027
    vertex 9.083480040939232 7.9880024704006285 2.5000000000000027
    vertex 8.934980900876035 10.303287707011448 2.5000000000000027
  endloop
endfacet
facet normal 3.313421234455651e-31 1.2160346272558746e-32 -1.0
  outer loop
    vertex 9.134591301505626 7.5997739027468505 2.5000000000000027
    vertex 9.083480040939232 7.9880024704006285 2.5000000000000027
    vertex 9.59039206101644 9.874602113644736 2.5000000000000027
  endloop
endfacet
facet normal 3.313421234455651e-31 1.2160346272558746e-32 -1.0
  outer loop
    vertex 9.325708135795486 5.121846572742704 2.5000000000000027
    vertex 9.134591301505626 7.5997739027468505 2.5000000000000027
    vertex 9.59039206101644 9.874602113644736 2.5000000000000027
  endloop
endfacet
facet normal 3.313421234455651e-31 1.2160346272558746e-32 -1.0
  outer loop
    vertex 9.909419512403526 5.643973143236029 2.5000000000000027
    vertex 9.325708135795486 5.121846572742704 2.5000000000000027
    vertex 9.59039206101644 9.874602113644736 2.5000000000000027
  endloop
endfacet
facet normal 3.313421234455651e-31 1.2160346272558746e-32 -1.0
  outer loop
    vertex 10.112518631509765 9.290890737036706 2.5000000000000027
    vertex 9.909419512403526 5.643973143236029 2.5000000000000027
    vertex 9.59039206101644 9.874602113644736 2.5000000000000027
  endloop
endfacet
facet normal 3.313421234455651e-31 1.2160346272558746e-32 -1.0
  outer loop
    vertex 10.338105105770227 6.299384303376434 2.5000000000000027
    vertex 9.909419512403526 5.643973143236029 2.5000000000000027
    vertex 10.112518631509765 9.290890737036706 2.5000000000000027
  endloop
endfacet
facet normal 3.313421234455651e-31 1.2160346272558746e-32 -1.0
  outer loop
    vertex 10.465778549431839 8.591932542874517 2.5000000000000027
    vertex 10.338105105770227 6.299384303376434 2.5000000000000027
    vertex 10.112518631509765 9.290890737036706 2.5000000000000027
  endloop
endfacet
facet normal 3.313421234455651e-31 1.2160346272558746e-32 -1.0
  outer loop
    vertex 10.582550701144118 7.0434148657185265 2.5000000000000027
    vertex 10.338105105770227 6.299384303376434 2.5000000000000027
    vertex 10.465778549431839 8.591932542874517 2.5000000000000027
  endloop
endfacet
facet normal 3.313421234455651e-31 1.2160346272558746e-32 -1.0
  outer loop
    vertex 10.62609773516589 7.825360377007302 2.5000000000000027
    vertex 10.582550701144118 7.0434148657185265 2.5000000000000027
    vertex 10.465778549431839 8.591932542874517 2.5000000000000027
  endloop
endfacet
facet normal -0.7071067811865476 -0.0 -0.7071067811865476
  outer loop
    vertex 2.8345913015056268 12.399773902746842 0.5000000000000028
    vertex 3.334591301505626 11.899773902746842 2.8199664825478975e-15
    vertex 2.8345913015056268 2.7997739027468365 0.5000000000000028
  endloop
endfacet
facet normal -0.7071067811865476 -0.0 -0.7071067811865476
  outer loop
    vertex 3.334591301505626 3.2997739027468356 2.8199664825478975e-15
    vertex 2.8345913015056268 2.7997739027468365 0.5000000000000028
    vertex 3.334591301505626 11.899773902746842 2.8199664825478975e-15
  endloop
endfacet
facet normal 1.0 0.0 0.0
  outer loop
    vertex 9.484591301505626 12.399773902746842 3.3000000000000025
    vertex 9.484591301505626 12.399773902746842 7.400000000000003
    vertex 9.484591301505626 2.7997739027468365 3.3000000000000025
  endloop
endfacet
facet normal 1.0 0.0 0.0
  outer loop
    vertex 9.484591301505626 2.7997739027468365 7.400000000000003
    vertex 9.484591301505626 2.7997739027468365 3.3000000000000025
    vertex 9.484591301505626 12.399773902746842 7.400000000000003
  endloop
endfacet
facet normal -0.7071067811865477 0.0 0.7071067811865474
  outer loop
    vertex 3.334591301505626 12.399773902746842 3.3000000000000025
    vertex 2.8345913015056268 12.399773902746842 2.8000000000000025
    vertex 3.334591301505626 2.7997739027468365 3.3000000000000025
  endloop
endfacet
facet normal -0.7071067811865477 0.0 0.7071067811865474
  outer loop
    vertex 2.8345913015056268 2.7997739027468365 2.8000000000000025
    vertex 3.334591301505626 2.7997739027468365 3.3000000000000025
    vertex 2.8345913015056268 12.399773902746842 2.8000000000000025
  endloop
endfacet
facet normal -1.0 0.0 0.0
  outer loop
    vertex 5.784591301505621 12.399773902746842 7.400000000000003
    vertex 5.784591301505621 12.399773902746842 3.3000000000000025
    vertex 5.784591301505621 2.7997739027468365 7.400000000000003
  endloop
endfacet
facet normal -1.0 0.0 0.0
  outer loop
    vertex 5.784591301505621 2.7997739027468365 3.3000000000000025
    vertex 5.784591301505621 2.7997739027468365 7.400000000000003
    vertex 5.784591301505621 12.399773902746842 3.3000000000000025
  endloop
endfacet
facet normal 1.7660961541156873e-32 -0.7071067811865461 -0.7071067811865489
  outer loop
    vertex 2.8345913015056268 2.7997739027468365 0.5000000000000028
    vertex 3.334591301505626 3.2997739027468356 2.8199664825478975e-15
    vertex 12.43459130150562 2.7997739027468365 0.5000000000000028
  endloop
endfacet
facet normal 1.7660961541156873e-32 -0.7071067811865461 -0.7071067811865489
  outer loop
    vertex 11.934591301505622 3.2997739027468356 2.8199664825478975e-15
    vertex 12.43459130150562 2.7997739027468365 0.5000000000000028
    vertex 3.334591301505626 3.2997739027468356 2.8199664825478975e-15
  endloop
endfacet
facet normal 0.0 0.0 1.0
  outer loop
    vertex 9.484591301505626 12.399773902746842 3.3000000000000025
    vertex 9.484591301505626 2.7997739027468365 3.3000000000000025
    vertex 11.934591301505622 12.399773902746842 3.3000000000000025
  endloop
endfacet
facet normal 0.0 0.0 1.0
  outer loop
    vertex 11.934591301505622 2.7997739027468365 3.3000000000000025
    vertex 11.934591301505622 12.399773902746842 3.3000000000000025
    vertex 9.484591301505626 2.7997739027468365 3.3000000000000025
  endloop
endfacet
facet normal 0.7071067811865475 0.0 0.7071067811865477
  outer loop
    vertex 11.934591301505622 12.399773902746842 3.3000000000000025
    vertex 11.934591301505622 2.7997739027468365 3.3000000000000025
    vertex 12.43459130150562 12.399773902746842 2.8000000000000025
  endloop
endfacet
facet normal 0.7071067811865475 0.0 0.7071067811865477
  outer loop
    vertex 12.43459130150562 2.7997739027468365 2.8000000000000025
    vertex 12.43459130150562 12.399773902746842 2.8000000000000025
    vertex 11.934591301505622 2.7997739027468365 3.3000000000000025
  endloop
endfacet
facet normal 1.1909698780489325e-18 0.7071067811865482 -0.7071067811865469
  outer loop
    vertex 11.934591301505622 11.899773902746842 2.8199664825478975e-15
    vertex 3.334591301505626 11.899773902746842 2.8199664825478975e-15
    vertex 12.43459130150562 12.399773902746842 0.5000000000000028
  endloop
endfacet
facet normal 1.1909698780489325e-18 0.7071067811865482 -0.7071067811865469
  outer loop
    vertex 2.8345913015056268 12.399773902746842 0.5000000000000028
    vertex 12.43459130150562 12.399773902746842 0.5000000000000028
    vertex 3.334591301505626 11.899773902746842 2.8199664825478975e-15
  endloop
endfacet
facet normal 0.0 0.0 1.0
  outer loop
    vertex 3.334591301505626 12.399773902746842 3.3000000000000025
    vertex 3.334591301505626 2.7997739027468365 3.3000000000000025
    vertex 5.784591301505621 12.399773902746842 3.3000000000000025
  endloop
endfacet
facet normal 0.0 0.0 1.0
  outer loop
    vertex 5.784591301505621 2.7997739027468365 3.3000000000000025
    vertex 5.784591301505621 12.399773902746842 3.3000000000000025
    vertex 3.334591301505626 2.7997739027468365 3.3000000000000025
  endloop
endfacet
facet normal 0.7071067811865471 -9.130383891088687e-32 -0.7071067811865479
  outer loop
    vertex 11.934591301505622 3.2997739027468356 2.8199664825478975e-15
    vertex 11.934591301505622 11.899773902746842 2.8199664825478975e-15
    vertex 12.43459130150562 2.7997739027468365 0.5000000000000028
  endloop
endfacet
facet normal 0.7071067811865471 -9.130383891088687e-32 -0.7071067811865479
  outer loop
    vertex 12.43459130150562 12.399773902746842 0.5000000000000028
    vertex 12.43459130150562 2.7997739027468365 0.5000000000000028
    vertex 11.934591301505622 11.899773902746842 2.8199664825478975e-15
  endloop
endfacet
facet normal 0.0 0.0 1.0
  outer loop
    vertex 5.784591301505621 2.7997739027468365 7.400000000000003
    vertex 6.134591301505632 7.5997739027468505 7.3999999999999995
    vertex 5.784591301505621 12.399773902746842 7.400000000000003
  endloop
endfacet
facet normal 0.0 0.0 1.0
  outer loop
    vertex 6.185702562072027 7.9880024704006285 7.3999999999999995
    vertex 5.784591301505621 12.399773902746842 7.400000000000003
    vertex 6.134591301505632 7.5997739027468505 7.3999999999999995
  endloop
endfacet
facet normal 0.0 0.0 1.0
  outer loop
    vertex 6.335553195828968 8.349773902746838 7.3999999999999995
    vertex 5.784591301505621 12.399773902746842 7.400000000000003
    vertex 6.185702562072027 7.9880024704006285 7.3999999999999995
  endloop
endfacet
facet normal 0.0 0.0 1.0
  outer loop
    vertex 6.573931129725805 8.660434074526675 7.3999999999999995
    vertex 5.784591301505621 12.399773902746842 7.400000000000003
    vertex 6.335553195828968 8.349773902746838 7.3999999999999995
  endloop
endfacet
facet normal 0.0 0.0 1.0
  outer loop
    vertex 9.484591301505626 12.399773902746842 7.400000000000003
    vertex 5.784591301505621 12.399773902746842 7.400000000000003
    vertex 6.573931129725805 8.660434074526675 7.3999999999999995
  endloop
endfacet
facet normal 0.0 0.0 1.0
  outer loop
    vertex 6.884591301505631 8.898812008423501 7.3999999999999995
    vertex 9.484591301505626 12.399773902746842 7.400000000000003
    vertex 6.573931129725805 8.660434074526675 7.3999999999999995
  endloop
endfacet
facet normal 0.0 0.0 1.0
  outer loop
    vertex 7.246362733851839 9.04866264218043 7.3999999999999995
    vertex 9.484591301505626 12.399773902746842 7.400000000000003
    vertex 6.884591301505631 8.898812008423501 7.3999999999999995
  endloop
endfacet
facet normal 0.0 0.0 1.0
  outer loop
    vertex 7.63459130150563 9.099773902746847 7.3999999999999995
    vertex 9.484591301505626 12.399773902746842 7.400000000000003
    vertex 7.246362733851839 9.04866264218043 7.3999999999999995
  endloop
endfacet
facet normal 0.0 0.0 1.0
  outer loop
    vertex 8.022819869159408 9.048662642180453 7.3999999999999995
    vertex 9.484591301505626 12.399773902746842 7.400000000000003
    vertex 7.63459130150563 9.099773902746847 7.3999999999999995
  endloop
endfacet
facet normal 0.0 0.0 1.0
  outer loop
    vertex 8.384591301505628 8.898812008423501 7.3999999999999995
    vertex 9.484591301505626 12.399773902746842 7.400000000000003
    vertex 8.022819869159408 9.048662642180453 7.3999999999999995
  endloop
endfacet
facet normal 0.0 0.0 1.0
  outer loop
    vertex 8.695251473285452 8.660434074526675 7.3999999999999995
    vertex 9.484591301505626 12.399773902746842 7.400000000000003
    vertex 8.384591301505628 8.898812008423501 7.3999999999999995
  endloop
endfacet
facet normal 0.0 0.0 1.0
  outer loop
    vertex 8.933629407182279 8.349773902746838 7.3999999999999995
    vertex 9.484591301505626 12.399773902746842 7.400000000000003
    vertex 8.695251473285452 8.660434074526675 7.3999999999999995
  endloop
endfacet
facet normal 0.0 0.0 1.0
  outer loop
    vertex 9.083480040939232 7.9880024704006285 7.3999999999999995
    vertex 9.484591301505626 12.399773902746842 7.400000000000003
    vertex 8.933629407182279 8.349773902746838 7.3999999999999995
  endloop
endfacet
facet normal 0.0 0.0 1.0
  outer loop
    vertex 9.134591301505626 7.5997739027468505 7.3999999999999995
    vertex 9.484591301505626 12.399773902746842 7.400000000000003
    vertex 9.083480040939232 7.9880024704006285 7.3999999999999995
  endloop
endfacet
facet normal 0.0 0.0 1.0
  outer loop
    vertex 9.484591301505626 2.7997739027468365 7.400000000000003
    vertex 6.573931129725805 6.539113730967027 7.3999999999999995
    vertex 5.784591301505621 2.7997739027468365 7.400000000000003
  endloop
endfacet
facet normal 0.0 0.0 1.0
  outer loop
    vertex 6.335553195828968 6.849773902746841 7.3999999999999995
    vertex 5.784591301505621 2.7997739027468365 7.400000000000003
    vertex 6.573931129725805 6.539113730967027 7.3999999999999995
  endloop
endfacet
facet normal 0.0 0.0 1.0
  outer loop
    vertex 6.185702562072027 7.211545335093072 7.3999999999999995
    vertex 5.784591301505621 2.7997739027468365 7.400000000000003
    vertex 6.335553195828968 6.849773902746841 7.3999999999999995
  endloop
endfacet
facet normal 0.0 0.0 1.0
  outer loop
    vertex 6.134591301505632 7.5997739027468505 7.3999999999999995
    vertex 5.784591301505621 2.7997739027468365 7.400000000000003
    vertex 6.185702562072027 7.211545335093072 7.3999999999999995
  endloop
endfacet
facet normal 0.0 0.0 1.0
  outer loop
    vertex 6.884591301505631 6.300735797070177 7.3999999999999995
    vertex 6.573931129725805 6.539113730967027 7.3999999999999995
    vertex 9.484591301505626 2.7997739027468365 7.400000000000003
  endloop
endfacet
facet normal 0.0 0.0 1.0
  outer loop
    vertex 7.246362733851851 6.150885163313248 7.3999999999999995
    vertex 6.884591301505631 6.300735797070177 7.3999999999999995
    vertex 9.484591301505626 2.7997739027468365 7.400000000000003
  endloop
endfacet
facet normal 0.0 0.0 1.0
  outer loop
    vertex 7.63459130150563 6.099773902746853 7.3999999999999995
    vertex 7.246362733851851 6.150885163313248 7.3999999999999995
    vertex 9.484591301505626 2.7997739027468365 7.400000000000003
  endloop
endfacet
facet normal 0.0 0.0 1.0
  outer loop
    vertex 8.022819869159408 6.150885163313248 7.3999999999999995
    vertex 7.63459130150563 6.099773902746853 7.3999999999999995
    vertex 9.484591301505626 2.7997739027468365 7.400000000000003
  endloop
endfacet
facet normal 0.0 0.0 1.0
  outer loop
    vertex 8.384591301505628 6.300735797070177 7.3999999999999995
    vertex 8.022819869159408 6.150885163313248 7.3999999999999995
    vertex 9.484591301505626 2.7997739027468365 7.400000000000003
  endloop
endfacet
facet normal 0.0 0.0 1.0
  outer loop
    vertex 8.695251473285452 6.539113730967027 7.3999999999999995
    vertex 8.384591301505628 6.300735797070177 7.3999999999999995
    vertex 9.484591301505626 2.7997739027468365 7.400000000000003
  endloop
endfacet
facet normal 0.0 0.0 1.0
  outer loop
    vertex 8.933629407182279 6.849773902746841 7.3999999999999995
    vertex 8.695251473285452 6.539113730967027 7.3999999999999995
    vertex 9.484591301505626 2.7997739027468365 7.400000000000003
  endloop
endfacet
facet normal 0.0 0.0 1.0
  outer loop
    vertex 9.083480040939232 7.211545335093072 7.3999999999999995
    vertex 8.933629407182279 6.849773902746841 7.3999999999999995
    vertex 9.484591301505626 2.7997739027468365 7.400000000000003
  endloop
endfacet
facet normal 0.0 0.0 1.0
  outer loop
    vertex 9.134591301505626 7.5997739027468505 7.3999999999999995
    vertex 9.083480040939232 7.211545335093072 7.3999999999999995
    vertex 9.484591301505626 2.7997739027468365 7.400000000000003
  endloop
endfacet
facet normal 0.0 0.0 1.0
  outer loop
    vertex 9.484591301505626 12.399773902746842 7.400000000000003
    vertex 9.134591301505626 7.5997739027468505 7.3999999999999995
    vertex 9.484591301505626 2.7997739027468365 7.400000000000003
  endloop
endfacet
facet normal -0.4510715587853275 0.8924877863898053 -0.0
  outer loop
    vertex 9.325708135795486 5.121846572742704 2.8199664825478975e-15
    vertex 8.626749941633296 4.76858665482064 2.8199664825478975e-15
    vertex 9.325708135795486 5.121846572742704 2.5000000000000027
  endloop
endfacet
facet normal -0.4510715587853275 0.8924877863898053 -0.0
  outer loop
    vertex 8.626749941633296 4.76858665482064 2.5000000000000027
    vertex 9.325708135795486 5.121846572742704 2.5000000000000027
    vertex 8.626749941633296 4.76858665482064 2.8199664825478975e-15
  endloop
endfacet
facet normal 0.7453310924037502 0.6666945047742875 0.0
  outer loop
    vertex 5.156663971501483 5.908657068456995 2.8199664825478975e-15
    vertex 5.156663971501483 5.908657068456995 2.5000000000000027
    vertex 5.678790541994808 5.324945691848942 2.8199664825478975e-15
  endloop
endfacet
facet normal 0.7453310924037502 0.6666945047742875 0.0
  outer loop
    vertex 5.678790541994808 5.324945691848942 2.5000000000000027
    vertex 5.678790541994808 5.324945691848942 2.8199664825478975e-15
    vertex 5.156663971501483 5.908657068456995 2.5000000000000027
  endloop
endfacet
facet normal 0.6666945047742887 -0.7453310924037492 0.0
  outer loop
    vertex 5.359763090607732 9.55557466225765 2.8199664825478975e-15
    vertex 5.943474467215762 10.077701232750973 2.8199664825478975e-15
    vertex 5.359763090607732 9.55557466225765 2.5000000000000027
  endloop
endfacet
facet normal 0.6666945047742887 -0.7453310924037492 0.0
  outer loop
    vertex 5.943474467215762 10.077701232750973 2.5000000000000027
    vertex 5.359763090607732 9.55557466225765 2.5000000000000027
    vertex 5.943474467215762 10.077701232750973 2.8199664825478975e-15
  endloop
endfacet
facet normal 0.45107155878533 -0.8924877863898041 0.0
  outer loop
    vertex 5.943474467215762 10.077701232750973 2.8199664825478975e-15
    vertex 6.642432661377951 10.43096115067306 2.8199664825478975e-15
    vertex 5.943474467215762 10.077701232750973 2.5000000000000027
  endloop
endfacet
facet normal 0.45107155878533 -0.8924877863898041 0.0
  outer loop
    vertex 6.642432661377951 10.43096115067306 2.5000000000000027
    vertex 5.943474467215762 10.077701232750973 2.5000000000000027
    vertex 6.642432661377951 10.43096115067306 2.8199664825478975e-15
  endloop
endfacet
facet normal 0.05560446436215895 0.998452874973575 -9.826187357232531e-34
  outer loop
    vertex 7.860177775766092 4.608267469086579 2.8199664825478975e-15
    vertex 7.63459130150563 4.620830520766859 2.8199664825478975e-15
    vertex 7.860177775766092 4.608267469086579 2.5000000000000027
  endloop
endfacet
facet normal 0.05560446436215895 0.998452874973575 -9.826187357232531e-34
  outer loop
    vertex 7.078232264477306 4.651814503108362 2.8199664825478975e-15
    vertex 7.860177775766092 4.608267469086579 2.5000000000000027
    vertex 7.63459130150563 4.620830520766859 2.8199664825478975e-15
  endloop
endfacet
facet normal 0.05560446436215895 0.998452874973575 -9.826187357232531e-34
  outer loop
    vertex 7.078232264477306 4.651814503108362 2.5000000000000027
    vertex 7.860177775766092 4.608267469086579 2.5000000000000027
    vertex 7.078232264477306 4.651814503108362 2.8199664825478975e-15
  endloop
endfacet
facet normal 0.05560446436215895 0.998452874973575 -9.826187357232531e-34
  outer loop
    vertex 7.63459130150563 4.620830520766859 2.5000000000000027
    vertex 7.860177775766092 4.608267469086579 2.5000000000000027
    vertex 7.078232264477306 4.651814503108362 2.5000000000000027
  endloop
endfacet
facet normal 0.5473813161882447 0.8368833220276437 0.0
  outer loop
    vertex 6.334201702135225 4.89626009848223 2.8199664825478975e-15
    vertex 5.678790541994808 5.324945691848942 2.8199664825478975e-15
    vertex 6.334201702135225 4.89626009848223 2.5000000000000027
  endloop
endfacet
facet normal 0.5473813161882447 0.8368833220276437 0.0
  outer loop
    vertex 5.678790541994808 5.324945691848942 2.5000000000000027
    vertex 6.334201702135225 4.89626009848223 2.5000000000000027
    vertex 5.678790541994808 5.324945691848942 2.8199664825478975e-15
  endloop
endfacet
facet normal 0.3121284078649118 0.9500399238998936 0.0
  outer loop
    vertex 7.078232264477306 4.651814503108362 2.8199664825478975e-15
    vertex 6.334201702135225 4.89626009848223 2.8199664825478975e-15
    vertex 7.078232264477306 4.651814503108362 2.5000000000000027
  endloop
endfacet
facet normal 0.3121284078649118 0.9500399238998936 0.0
  outer loop
    vertex 6.334201702135225 4.89626009848223 2.5000000000000027
    vertex 7.078232264477306 4.651814503108362 2.5000000000000027
    vertex 6.334201702135225 4.89626009848223 2.8199664825478975e-15
  endloop
endfacet
facet normal 0.8924877863898047 0.451071558785329 0.0
  outer loop
    vertex 4.803404053579408 6.607615262619161 2.8199664825478975e-15
    vertex 4.803404053579408 6.607615262619161 2.5000000000000027
    vertex 5.156663971501483 5.908657068456995 2.8199664825478975e-15
  endloop
endfacet
facet normal 0.8924877863898047 0.451071558785329 0.0
  outer loop
    vertex 5.156663971501483 5.908657068456995 2.5000000000000027
    vertex 5.156663971501483 5.908657068456995 2.8199664825478975e-15
    vertex 4.803404053579408 6.607615262619161 2.5000000000000027
  endloop
endfacet
endsolid TtrackSliderAll
